<svg 
    width="219" 
    height="194" 
    viewBox="0 0 219 194" 
    fill="none" 
    xmlns="http://www.w3.org/2000/svg"
>
    <path
        d="M46.614 8.79481C49.3874 7.25461 52.4402 6.36318 55.5663 6.18065C56.4072 6.08244 57.256 6.26513 57.9941 6.70339C58.2217 7.54797 56.0595 11.6503 49.5349 15.0688C46.7749 16.6025 43.733 17.4808 40.6205 17.6427C39.7797 17.741 38.9309 17.5581 38.1928 17.1199C37.9652 16.2753 40.0895 12.2134 46.614 8.79481ZM40.6205 23.7157C44.5921 23.5518 48.4794 22.4528 52.0006 20.4983C55.393 18.8023 58.4256 16.3943 60.915 13.4199C64.4428 8.95566 63.76 5.65774 63.0013 4.08923C62.2583 2.69397 61.1393 1.56579 59.7876 0.849237C58.4359 0.132685 56.9132 -0.139588 55.4146 0.0674076C51.4459 0.250934 47.5625 1.34895 44.0346 3.28494C40.629 4.99485 37.5841 7.41604 35.0823 10.4035C33.8903 11.5476 33.0584 13.052 32.6989 14.7135C32.3393 16.375 32.4695 18.1134 33.0718 19.6939C33.8147 21.0892 34.9338 22.2174 36.2855 22.9339C37.6372 23.6505 39.1599 23.9227 40.6585 23.7157H40.6205Z"
        fill="white" 
    />
    <path
        d="M55.1111 26.7725C67.4549 20.2368 81.068 16.8488 94.8653 16.8787C111.067 16.8232 126.979 21.4284 140.907 30.2035C154.835 38.9787 166.257 51.5952 173.957 66.7091L12.8912 151.167C3.45161 128.666 2.57363 103.169 10.4405 79.9982C18.3073 56.8273 34.311 37.773 55.1111 26.8126V26.7725ZM10.2358 159.211L181.657 69.4037L180.367 66.7091C168.818 43.2083 149.047 25.438 125.289 17.2055C101.532 8.9731 75.6783 10.9334 53.2677 22.6664C30.857 34.3994 13.6719 54.9718 5.39444 79.9759C-2.88303 104.98 -1.59448 132.427 8.98401 156.436L10.2358 159.131V159.211Z"
        fill="white" 
    />
    <path
        d="M18.7709 144.571C19.1099 144.586 19.4474 144.517 19.7571 144.37C20.1265 144.238 20.4658 144.025 20.7535 143.746C21.0411 143.467 21.2708 143.128 21.4278 142.749C21.5848 142.371 21.6658 141.962 21.6655 141.549C21.6652 141.135 21.5837 140.727 21.4262 140.348C16.3619 125.016 15.4837 108.479 18.8928 92.6414C22.302 76.8033 29.8598 62.3076 40.6964 50.8227C41.0359 50.5603 41.3164 50.2215 41.5177 49.8306C41.719 49.4397 41.8362 49.0063 41.8607 48.5616C41.8853 48.117 41.8167 47.6721 41.6599 47.2589C41.503 46.8457 41.2618 46.4745 40.9535 46.1718C40.6453 45.8692 40.2776 45.6428 39.877 45.5087C39.4764 45.3746 39.0527 45.3363 38.6365 45.3964C38.2202 45.4565 37.8217 45.6137 37.4695 45.8565C37.1173 46.0994 36.8203 46.4218 36.5996 46.8009C25.014 59.0975 16.9435 74.6164 13.3191 91.5669C9.69465 108.518 10.6641 126.209 16.1155 142.601C16.3163 143.177 16.6781 143.674 17.1526 144.026C17.6271 144.378 18.1917 144.568 18.7709 144.571Z"
        fill="white" 
    />
    <path
        d="M211.928 189.576H8.37704C7.7323 189.494 7.13833 189.164 6.70741 188.649C6.27649 188.134 6.03853 187.469 6.03853 186.781C6.03853 186.092 6.27649 185.428 6.70741 184.913C7.13833 184.398 7.7323 184.068 8.37704 183.986H211.928C212.573 184.068 213.167 184.398 213.598 184.913C214.029 185.428 214.267 186.092 214.267 186.781C214.267 187.469 214.029 188.134 213.598 188.649C213.167 189.164 212.573 189.494 211.928 189.576ZM211.928 179.562H8.37704C6.65896 179.698 5.05293 180.517 3.88092 181.856C2.70892 183.195 2.05762 184.954 2.05762 186.781C2.05762 188.608 2.70892 190.367 3.88092 191.705C5.05293 193.044 6.65896 193.864 8.37704 194H211.928C213.646 193.864 215.252 193.044 216.424 191.705C217.596 190.367 218.247 188.608 218.247 186.781C218.247 184.954 217.596 183.195 216.424 181.856C215.252 180.517 213.646 179.698 211.928 179.562Z"
        fill="white" 
    />
    <path
        d="M193.606 132.305L189.813 164.238C189.584 165.976 188.771 167.568 187.524 168.721C186.276 169.873 184.678 170.51 183.023 170.512H164.587C162.932 170.51 161.334 169.873 160.086 168.721C158.838 167.568 158.026 165.976 157.797 164.238L154.004 132.305H193.606ZM153.473 164.801C153.829 167.609 155.132 170.186 157.14 172.056C159.147 173.926 161.725 174.963 164.397 174.976H182.833C185.508 174.971 188.09 173.937 190.099 172.066C192.108 170.194 193.409 167.613 193.758 164.801L198.348 127.881H149.034L153.624 164.801H153.473Z"
        fill="white" 
    />
    <path
        d="M174.146 86.3757C173.803 86.2084 173.432 86.1153 173.054 86.1017C172.677 86.0881 172.301 86.1545 171.947 86.2967C171.594 86.439 171.272 86.6543 170.998 86.9303C170.724 87.2062 170.505 87.5372 170.353 87.904C165.839 98.7227 168.153 103.71 170.353 108.013C171.54 110.108 172.167 112.507 172.167 114.951C172.167 117.395 171.54 119.793 170.353 121.888C170.197 122.257 170.113 122.655 170.106 123.059C170.098 123.463 170.167 123.865 170.309 124.24C170.45 124.615 170.661 124.956 170.93 125.243C171.198 125.53 171.518 125.757 171.87 125.91C172.219 126.063 172.593 126.145 172.97 126.152C173.536 126.158 174.091 125.986 174.564 125.656C175.037 125.327 175.407 124.855 175.626 124.302C177.111 121.397 177.866 118.137 177.82 114.834C177.773 111.53 176.926 108.295 175.36 105.439C173.577 101.618 172.174 98.5619 175.588 90.3573C175.746 89.9935 175.833 89.5998 175.846 89.1996C175.859 88.7993 175.796 88.4003 175.662 88.026C175.528 87.6516 175.325 87.3093 175.065 87.019C174.804 86.7288 174.492 86.4965 174.146 86.3355V86.3757Z"
        fill="white" 
    />
    <path
        d="M162.046 86.3757C161.702 86.2084 161.331 86.1153 160.954 86.1017C160.576 86.0881 160.2 86.1545 159.847 86.2967C159.494 86.439 159.171 86.6543 158.897 86.9303C158.623 87.2062 158.404 87.5372 158.252 87.904C153.738 98.7227 156.052 103.71 158.252 108.013C159.439 110.108 160.066 112.507 160.066 114.951C160.066 117.395 159.439 119.793 158.252 121.888C158.097 122.257 158.013 122.655 158.005 123.059C157.997 123.463 158.066 123.865 158.208 124.24C158.349 124.615 158.561 124.956 158.829 125.243C159.097 125.53 159.417 125.757 159.77 125.91C160.119 126.063 160.492 126.145 160.87 126.152C161.447 126.169 162.016 125.997 162.498 125.658C162.98 125.32 163.352 124.832 163.563 124.261C165.061 121.363 165.827 118.103 165.787 114.798C165.747 111.494 164.903 108.256 163.335 105.399C161.552 101.578 160.149 98.5216 163.563 90.3171C163.721 89.9532 163.808 89.5597 163.821 89.1594C163.834 88.7592 163.772 88.3602 163.637 87.9858C163.503 87.6115 163.3 87.2691 163.04 86.9789C162.779 86.6887 162.467 86.4562 162.121 86.2953L162.046 86.3757Z"
        fill="white" 
    />
    <path
        d="M182.53 108.174C183.705 110.274 184.325 112.67 184.325 115.112C184.325 117.553 183.705 119.95 182.53 122.049C182.356 122.418 182.256 122.821 182.235 123.233C182.215 123.645 182.274 124.057 182.409 124.443C182.545 124.83 182.753 125.183 183.023 125.481C183.292 125.778 183.616 126.014 183.974 126.174C184.333 126.334 184.718 126.414 185.107 126.41C185.496 126.405 185.88 126.316 186.235 126.148C186.59 125.98 186.909 125.737 187.172 125.433C187.435 125.129 187.637 124.772 187.764 124.382C189.26 121.481 190.022 118.219 189.975 114.914C189.928 111.608 189.075 108.372 187.499 105.52C185.716 101.699 184.312 98.6423 187.764 90.4378C188.07 89.6963 188.086 88.8565 187.809 88.1026C187.531 87.3486 186.983 86.7421 186.285 86.4159C185.942 86.2487 185.571 86.1555 185.193 86.142C184.815 86.1284 184.439 86.1948 184.086 86.337C183.733 86.4793 183.41 86.6946 183.136 86.9706C182.863 87.2465 182.643 87.5775 182.492 87.9442C178.015 98.7629 180.329 103.75 182.492 108.053L182.53 108.174Z"
        fill="white" 
    />
    <path
        d="M107.914 171.438V175.138H112.125V171.84L142.472 163.515C143.163 163.307 143.761 162.843 144.157 162.207C144.553 161.572 144.72 160.806 144.628 160.051C144.536 159.295 144.191 158.6 143.656 158.091C143.121 157.583 142.432 157.295 141.713 157.281H24.1195C23.404 157.304 22.7201 157.598 22.1915 158.11C21.6628 158.621 21.3243 159.317 21.2372 160.07C21.1502 160.823 21.3202 161.585 21.7167 162.216C22.1131 162.848 22.7098 163.309 23.3987 163.515L53.442 171.759V175.138H57.6527V171.116C57.6465 170.329 57.3989 169.566 56.9471 168.942C56.4954 168.318 55.8642 167.867 55.149 167.657L33.5649 161.624H132.192L110.532 167.536C109.704 167.772 108.976 168.298 108.467 169.028C107.957 169.758 107.695 170.65 107.725 171.558L107.914 171.438Z"
        fill="white" 
    />
    <path
        d="M102.338 149.719L109.508 152.856H120.47L103.931 145.617C90.3919 139.806 75.2511 139.806 61.7115 145.617L44.4518 153.017H55.6042L63.1909 149.719C75.7228 144.352 89.7305 144.352 102.262 149.719H102.338Z"
        fill="white" 
    />
</svg>